<?xml version="1.0" standalone="no"?>
<!DOCTYPE svg PUBLIC "-//W3C//DTD SVG 20010904//EN"
 "http://www.w3.org/TR/2001/REC-SVG-20010904/DTD/svg10.dtd">
<svg version="1.0" xmlns="http://www.w3.org/2000/svg"
 width="500.000000pt" height="500.000000pt" viewBox="0 0 500.000000 500.000000"
 preserveAspectRatio="xMidYMid meet">
<metadata>
Created by potrace 1.14, written by Peter Selinger 2001-2017
</metadata>
<g transform="translate(0.000000,500.000000) scale(0.100000,-0.100000)"
fill="#000000" stroke="none">
<path d="M1713 3953 c37 -2 96 -2 130 0 34 2 4 3 -68 3 -71 0 -99 -1 -62 -3z"/>
<path d="M1457 3708 c-11 -245 -8 -1056 3 -1063 7 -4 10 200 10 604 0 336 -2
611 -3 611 -2 0 -7 -68 -10 -152z"/>
<path d="M1680 3275 l0 -475 187 0 c102 0 184 3 181 6 -3 3 -61 9 -129 14
-165 13 -176 16 -196 53 -16 29 -18 74 -18 420 l0 389 28 24 c24 20 39 24 100
25 40 1 104 5 142 9 54 5 27 7 -112 8 l-183 2 0 -475z"/>
<path d="M2852 3485 c-17 -37 -14 -45 4 -12 9 16 14 31 11 33 -2 2 -9 -7 -15
-21z"/>
<path d="M3113 3469 c-75 -37 -76 -44 -87 -452 -5 -196 -6 -360 -3 -364 4 -3
10 -4 13 0 4 3 10 142 15 309 5 167 11 326 14 354 11 97 64 145 158 145 62 0
95 -11 124 -42 42 -46 47 -81 58 -403 8 -247 16 -179 13 104 -3 301 -6 313
-83 350 -57 28 -165 27 -222 -1z"/>
<path d="M2820 3388 c-11 -48 -33 -726 -23 -737 10 -13 13 35 18 330 3 178 11
353 16 388 12 79 5 91 -11 19z"/>
<path d="M3622 3380 c0 -14 2 -19 5 -12 2 6 2 18 0 25 -3 6 -5 1 -5 -13z"/>
<path d="M3633 3295 c-1 -33 2 -100 6 -150 l8 -90 0 80 c0 44 -3 112 -7 150
l-7 70 0 -60z"/>
<path d="M2506 2474 c-12 -11 -16 -36 -16 -99 0 -102 4 -115 40 -115 29 0 40
15 40 56 0 36 -18 29 -22 -8 -2 -21 -8 -33 -18 -33 -12 0 -15 17 -15 95 0 78
3 95 15 95 9 0 16 -11 18 -27 4 -34 22 -37 22 -4 0 24 -23 56 -40 56 -5 0 -16
-7 -24 -16z"/>
<path d="M1690 2370 l0 -110 30 0 c17 0 30 5 30 10 0 6 -9 10 -20 10 -17 0
-20 7 -20 39 0 31 4 40 23 46 l22 8 -22 4 c-20 4 -23 11 -23 48 0 37 3 44 23
48 16 3 13 5 -10 6 l-33 1 0 -110z"/>
<path d="M1930 2470 c0 -5 7 -10 15 -10 8 0 15 5 15 10 0 6 -7 10 -15 10 -8 0
-15 -4 -15 -10z"/>
<path d="M2170 2470 c0 -5 7 -10 15 -10 8 0 15 5 15 10 0 6 -7 10 -15 10 -8 0
-15 -4 -15 -10z"/>
<path d="M2690 2370 c0 -67 4 -110 10 -110 6 0 10 43 10 110 0 67 -4 110 -10
110 -6 0 -10 -43 -10 -110z"/>
<path d="M2940 2370 c0 -67 4 -110 10 -110 6 0 10 43 10 110 0 67 -4 110 -10
110 -6 0 -10 -43 -10 -110z"/>
<path d="M3096 2471 c-9 -14 -9 -150 0 -188 4 -15 13 -23 28 -23 19 1 19 2 4
11 -24 14 -27 139 -3 139 8 0 15 5 15 10 0 6 -6 10 -14 10 -9 0 -16 12 -18 28
-2 19 -5 23 -12 13z"/>
<path d="M1774 2421 c-9 -9 -4 -161 6 -161 5 0 10 33 12 72 2 60 6 73 21 76
15 3 17 -6 17 -72 0 -44 4 -76 10 -76 6 0 10 32 10 75 0 60 3 75 15 75 12 0
15 -15 15 -75 0 -45 4 -75 10 -75 7 0 10 30 8 83 l-3 82 -58 0 c-32 0 -60 -1
-63 -4z"/>
<path d="M1937 2423 c-11 -11 -8 -163 3 -163 6 0 10 35 10 85 0 85 -1 91 -13
78z"/>
<path d="M1991 2416 c-17 -21 -6 -62 19 -76 13 -7 20 -21 20 -41 0 -36 -21
-35 -30 2 -4 16 -8 20 -14 11 -4 -7 -4 -21 -1 -33 5 -15 14 -19 33 -17 23 3
27 8 30 41 3 32 0 38 -22 47 -29 11 -38 60 -11 60 8 0 15 -9 15 -20 0 -11 5
-20 11 -20 6 0 9 12 7 28 -4 32 -37 42 -57 18z"/>
<path d="M2087 2423 c-4 -3 -7 -21 -7 -40 0 -27 5 -35 26 -43 20 -8 25 -16 22
-37 -4 -31 -28 -44 -28 -14 0 11 -5 23 -11 26 -7 5 -9 -3 -7 -21 2 -22 9 -30
27 -32 45 -7 57 57 16 84 -28 18 -35 64 -10 64 8 0 15 -9 15 -20 0 -11 5 -20
10 -20 14 0 13 33 -2 48 -13 13 -41 16 -51 5z"/>
<path d="M2180 2346 c0 -51 4 -86 10 -86 6 0 10 33 10 79 0 44 -4 83 -10 86
-6 4 -10 -25 -10 -79z"/>
<path d="M2234 2417 c-3 -8 -4 -45 -2 -83 l3 -69 30 0 30 0 0 80 c0 80 0 80
-28 83 -16 2 -29 -2 -33 -11z m44 -74 c-2 -42 -8 -68 -15 -71 -10 -3 -13 15
-13 67 0 57 3 71 15 71 13 0 15 -12 13 -67z"/>
<path d="M2330 2343 c0 -49 4 -83 10 -83 6 0 10 32 10 75 0 68 2 75 20 75 18
0 20 -7 20 -75 0 -43 4 -75 10 -75 12 0 14 139 2 157 -4 6 -22 11 -40 11 l-32
-1 0 -84z"/>
<path d="M2602 2418 c-14 -14 -16 -48 -2 -48 6 0 10 9 10 20 0 11 7 20 15 20
25 0 18 -46 -11 -64 -20 -14 -25 -24 -22 -49 3 -28 7 -32 36 -34 l33 -1 -3 81
c-3 73 -5 82 -23 85 -11 1 -26 -3 -33 -10z m36 -110 c-3 -34 -20 -42 -26 -13
-5 22 5 45 18 45 7 0 10 -14 8 -32z"/>
<path d="M2744 2417 c-3 -8 -4 -45 -2 -83 l3 -69 30 0 c25 0 30 4 33 28 4 32
-15 37 -20 5 -2 -12 -9 -23 -15 -26 -10 -3 -13 15 -13 67 0 56 3 71 15 71 8 0
15 -9 15 -20 0 -11 5 -20 11 -20 6 0 9 12 7 28 -2 21 -9 28 -31 30 -16 2 -29
-2 -33 -11z"/>
<path d="M2842 2348 l3 -83 33 -2 32 -1 0 84 c0 105 -18 111 -22 7 -2 -50 -7
-78 -15 -81 -10 -3 -13 17 -13 77 0 49 -4 81 -10 81 -7 0 -10 -30 -8 -82z"/>
<path d="M2997 2423 c-11 -10 -8 -53 3 -53 6 0 10 9 10 20 0 11 7 20 15 20 20
0 20 -46 1 -53 -24 -9 -46 -51 -40 -74 5 -18 13 -22 40 -21 l34 1 0 72 c0 42
-5 76 -12 83 -13 13 -41 16 -51 5z m41 -115 c-2 -21 -8 -33 -18 -33 -19 0 -25
32 -10 50 20 24 31 17 28 -17z"/>
<path d="M3174 2419 c-3 -6 -6 -39 -6 -74 0 -35 3 -68 6 -74 11 -17 53 -13 60
5 11 28 6 130 -6 142 -15 15 -45 16 -54 1z m46 -73 c0 -64 -14 -92 -31 -65
-10 16 -12 113 -2 122 3 4 12 7 20 7 9 0 13 -17 13 -64z"/>
<path d="M3270 2343 c0 -49 4 -83 10 -83 6 0 10 32 10 75 0 60 3 75 15 75 8 0
15 4 15 9 0 5 -11 8 -25 7 -25 -1 -25 -3 -25 -83z"/>
<path d="M1451 1928 c1 -95 5 -220 9 -278 5 -81 7 -41 8 173 1 179 -2 277 -8
277 -6 0 -10 -63 -9 -172z"/>
<path d="M1680 1869 l0 -231 31 6 c17 3 100 7 183 7 l151 2 -140 9 c-151 9
-183 21 -196 69 -4 13 -7 102 -8 197 -1 107 -5 172 -11 172 -6 0 -10 -84 -10
-231z"/>
<path d="M2803 1780 c3 -267 7 -333 20 -370 9 -25 14 -34 11 -20 -3 14 -10
178 -15 364 -5 187 -12 342 -15 345 -3 3 -4 -140 -1 -319z"/>
<path d="M3025 1793 c4 -170 11 -326 17 -347 23 -91 66 -120 183 -120 151 0
193 42 207 208 7 86 1 463 -7 454 -2 -2 -6 -100 -9 -218 -9 -308 -14 -331 -75
-383 -60 -50 -188 -42 -236 15 -37 43 -44 85 -50 298 -8 292 -16 400 -27 400
-7 0 -8 -105 -3 -307z"/>
<path d="M3652 1729 c-1 -86 -4 -185 -7 -220 l-4 -64 9 60 c6 33 9 132 7 220
l-3 160 -2 -156z"/>
<path d="M1693 1443 c42 -2 112 -2 155 0 42 1 7 3 -78 3 -85 0 -120 -2 -77 -3z"/>
<path d="M3631 1424 c0 -11 3 -14 6 -6 3 7 2 16 -1 19 -3 4 -6 -2 -5 -13z"/>
<path d="M3338 1143 c7 -3 16 -2 19 1 4 3 -2 6 -13 5 -11 0 -14 -3 -6 -6z"/>
<path d="M3187 1133 c18 -2 50 -2 70 0 21 2 7 4 -32 4 -38 0 -55 -2 -38 -4z"/>
</g>
</svg>
